<?xml version="1.0" encoding="UTF-8" standalone="no"?><svg xmlns="http://www.w3.org/2000/svg" xmlns:xlink="http://www.w3.org/1999/xlink" contentScriptType="application/ecmascript" contentStyleType="text/css" height="1896px" preserveAspectRatio="none" style="width:1059px;height:1896px;" version="1.1" viewBox="0 0 1059 1896" width="1059px" zoomAndPan="magnify"><defs><filter height="300%" id="ffu5lpujanmpj" width="300%" x="-1" y="-1"><feGaussianBlur result="blurOut" stdDeviation="2.0"/><feColorMatrix in="blurOut" result="blurOut2" type="matrix" values="0 0 0 0 0 0 0 0 0 0 0 0 0 0 0 0 0 0 .4 0"/><feOffset dx="4.0" dy="4.0" in="blurOut2" result="blurOut3"/><feBlend in="SourceGraphic" in2="blurOut3" mode="normal"/></filter></defs><g><rect fill="#FFFFFF" filter="url(#ffu5lpujanmpj)" height="281.1641" style="stroke: #000000; stroke-width: 2.0;" width="565.5" x="239" y="56.6094"/><rect fill="#FFFFFF" filter="url(#ffu5lpujanmpj)" height="111.4063" style="stroke: #000000; stroke-width: 2.0;" width="545.5" x="249" y="126.3125"/><rect fill="#FFFFFF" height="62.7031" style="stroke: none; stroke-width: 1.0;" width="545.5" x="249" y="175.0156"/><rect fill="#FFFFFF" filter="url(#ffu5lpujanmpj)" height="79.0547" style="stroke: #000000; stroke-width: 2.0;" width="545.5" x="249" y="251.7188"/><rect fill="#FFFFFF" filter="url(#ffu5lpujanmpj)" height="1414.9531" style="stroke: #000000; stroke-width: 2.0;" width="1025.5" x="12" y="351.7734"/><rect fill="#FFFFFF" filter="url(#ffu5lpujanmpj)" height="204.4609" style="stroke: #000000; stroke-width: 2.0;" width="585.5" x="229" y="482.1797"/><rect fill="#FFFFFF" filter="url(#ffu5lpujanmpj)" height="172.1094" style="stroke: #000000; stroke-width: 2.0;" width="565.5" x="239" y="507.5313"/><rect fill="#FFFFFF" filter="url(#ffu5lpujanmpj)" height="79.0547" style="stroke: #000000; stroke-width: 2.0;" width="545.5" x="249" y="593.5859"/><rect fill="#FFFFFF" filter="url(#ffu5lpujanmpj)" height="249.8125" style="stroke: #000000; stroke-width: 2.0;" width="585.5" x="229" y="891.1016"/><rect fill="#FFFFFF" filter="url(#ffu5lpujanmpj)" height="111.4063" style="stroke: #000000; stroke-width: 2.0;" width="565.5" x="239" y="916.4531"/><rect fill="#FFFFFF" filter="url(#ffu5lpujanmpj)" height="79.0547" style="stroke: #000000; stroke-width: 2.0;" width="545.5" x="249" y="941.8047"/><rect fill="#FFFFFF" filter="url(#ffu5lpujanmpj)" height="92.0547" style="stroke: #000000; stroke-width: 2.0;" width="545.5" x="249" y="1041.8594"/><rect fill="#FFFFFF" filter="url(#ffu5lpujanmpj)" height="79.0547" style="stroke: #000000; stroke-width: 2.0;" width="545.5" x="249" y="1259.9688"/><rect fill="#FFFFFF" filter="url(#ffu5lpujanmpj)" height="92.0547" style="stroke: #000000; stroke-width: 2.0;" width="545.5" x="249" y="1484.0781"/><rect fill="#FFFFFF" filter="url(#ffu5lpujanmpj)" height="125.2422" style="stroke: #000000; stroke-width: 2.0;" width="545.5" x="249" y="1634.4844"/><rect fill="#FFFFFF" height="46.1875" style="stroke: none; stroke-width: 1.0;" width="545.5" x="249" y="1713.5391"/><rect fill="#FFFFFF" filter="url(#ffu5lpujanmpj)" height="48.7031" style="stroke: #000000; stroke-width: 2.0;" width="545.5" x="249" y="1780.7266"/><line style="stroke: #383838; stroke-width: 1.0; stroke-dasharray: 5.0,5.0;" x1="277" x2="277" y1="39.6094" y2="1846.4297"/><line style="stroke: #383838; stroke-width: 1.0; stroke-dasharray: 5.0,5.0;" x1="766.5" x2="766.5" y1="39.6094" y2="1846.4297"/><rect fill="#F8F8F8" filter="url(#ffu5lpujanmpj)" height="31.6094" style="stroke: #383838; stroke-width: 1.5;" width="33" x="259" y="3"/><text fill="#000000" font-family="sans-serif" font-size="14" lengthAdjust="spacingAndGlyphs" textLength="19" x="266" y="24.5332">SC</text><rect fill="#F8F8F8" filter="url(#ffu5lpujanmpj)" height="31.6094" style="stroke: #383838; stroke-width: 1.5;" width="33" x="259" y="1845.4297"/><text fill="#000000" font-family="sans-serif" font-size="14" lengthAdjust="spacingAndGlyphs" textLength="19" x="266" y="1866.9629">SC</text><rect fill="#F8F8F8" filter="url(#ffu5lpujanmpj)" height="31.6094" style="stroke: #383838; stroke-width: 1.5;" width="32" x="748.5" y="3"/><text fill="#000000" font-family="sans-serif" font-size="14" lengthAdjust="spacingAndGlyphs" textLength="18" x="755.5" y="24.5332">SP</text><rect fill="#F8F8F8" filter="url(#ffu5lpujanmpj)" height="31.6094" style="stroke: #383838; stroke-width: 1.5;" width="32" x="748.5" y="1845.4297"/><text fill="#000000" font-family="sans-serif" font-size="14" lengthAdjust="spacingAndGlyphs" textLength="18" x="755.5" y="1866.9629">SP</text><path d="M239,56.6094 L350,56.6094 L350,64.6094 L340,74.6094 L239,74.6094 L239,56.6094 " fill="#EEEEEE" style="stroke: #000000; stroke-width: 1.0;"/><rect fill="none" height="281.1641" style="stroke: #000000; stroke-width: 2.0;" width="565.5" x="239" y="56.6094"/><text fill="#000000" font-family="sans-serif" font-size="13" font-weight="bold" lengthAdjust="spacingAndGlyphs" textLength="66" x="254" y="71.1045">unsecured</text><rect fill="#EEEEEE" filter="url(#ffu5lpujanmpj)" height="3" style="stroke: #EEEEEE; stroke-width: 1.0;" width="1044.5" x="3" y="96.1367"/><line style="stroke: #000000; stroke-width: 1.0;" x1="3" x2="1047.5" y1="96.1367" y2="96.1367"/><line style="stroke: #000000; stroke-width: 1.0;" x1="3" x2="1047.5" y1="99.1367" y2="99.1367"/><rect fill="#EEEEEE" filter="url(#ffu5lpujanmpj)" height="24.3516" style="stroke: #000000; stroke-width: 2.0;" width="192" x="429.25" y="84.9609"/><text fill="#000000" font-family="sans-serif" font-size="13" font-weight="bold" lengthAdjust="spacingAndGlyphs" textLength="174" x="435.25" y="102.4561">Discover network "topology</text><path d="M249,126.3125 L310,126.3125 L310,134.3125 L300,144.3125 L249,144.3125 L249,126.3125 " fill="#EEEEEE" style="stroke: #000000; stroke-width: 1.0;"/><rect fill="none" height="111.4063" style="stroke: #000000; stroke-width: 2.0;" width="545.5" x="249" y="126.3125"/><text fill="#000000" font-family="sans-serif" font-size="13" font-weight="bold" lengthAdjust="spacingAndGlyphs" textLength="16" x="264" y="140.8076">alt</text><line style="stroke: #383838; stroke-width: 1.0;" x1="277.5" x2="287.5" y1="167.0156" y2="163.0156"/><line style="stroke: #383838; stroke-width: 1.0;" x1="277.5" x2="287.5" y1="167.0156" y2="171.0156"/><line style="stroke: #383838; stroke-width: 1.0;" x1="277.5" x2="765.5" y1="167.0156" y2="167.0156"/><text fill="#000000" font-family="sans-serif" font-size="13" font-weight="bold" lengthAdjust="spacingAndGlyphs" textLength="7" x="294.5" y="162.1592">1</text><text fill="#000000" font-family="sans-serif" font-size="13" lengthAdjust="spacingAndGlyphs" textLength="298" x="305.5" y="162.1592">Hello(EndpointReference, Types, Scopes, [XAddrs])</text><line style="stroke: #000000; stroke-width: 1.0; stroke-dasharray: 2.0,2.0;" x1="249" x2="794.5" y1="176.0156" y2="176.0156"/><line style="stroke: #383838; stroke-width: 1.0;" x1="764.5" x2="754.5" y1="199.3672" y2="195.3672"/><line style="stroke: #383838; stroke-width: 1.0;" x1="764.5" x2="754.5" y1="199.3672" y2="203.3672"/><line style="stroke: #383838; stroke-width: 1.0;" x1="277.5" x2="765.5" y1="199.3672" y2="199.3672"/><text fill="#000000" font-family="sans-serif" font-size="13" font-weight="bold" lengthAdjust="spacingAndGlyphs" textLength="7" x="284.5" y="194.5107">2</text><text fill="#000000" font-family="sans-serif" font-size="13" lengthAdjust="spacingAndGlyphs" textLength="129" x="295.5" y="194.5107">Probe(Types, Scopes)</text><polygon fill="#383838" points="288.5,225.7188,278.5,229.7188,288.5,233.7188,284.5,229.7188" style="stroke: #383838; stroke-width: 1.0;"/><line style="stroke: #383838; stroke-width: 1.0;" x1="282.5" x2="765.5" y1="229.7188" y2="229.7188"/><text fill="#000000" font-family="sans-serif" font-size="13" font-weight="bold" lengthAdjust="spacingAndGlyphs" textLength="7" x="294.5" y="224.8623">3</text><text fill="#000000" font-family="sans-serif" font-size="13" lengthAdjust="spacingAndGlyphs" textLength="258" x="305.5" y="224.8623">ProbeMatches(EndpointReference, [XAddrs])</text><path d="M249,251.7188 L314,251.7188 L314,259.7188 L304,269.7188 L249,269.7188 L249,251.7188 " fill="#EEEEEE" style="stroke: #000000; stroke-width: 1.0;"/><rect fill="none" height="79.0547" style="stroke: #000000; stroke-width: 2.0;" width="545.5" x="249" y="251.7188"/><text fill="#000000" font-family="sans-serif" font-size="13" font-weight="bold" lengthAdjust="spacingAndGlyphs" textLength="20" x="264" y="266.2139">opt</text><text fill="#000000" font-family="sans-serif" font-size="11" font-weight="bold" lengthAdjust="spacingAndGlyphs" textLength="297" x="329" y="265.1377">[if XAddrs were missing from ProbeMatches or Hello]</text><line style="stroke: #383838; stroke-width: 1.0;" x1="764.5" x2="754.5" y1="292.4219" y2="288.4219"/><line style="stroke: #383838; stroke-width: 1.0;" x1="764.5" x2="754.5" y1="292.4219" y2="296.4219"/><line style="stroke: #383838; stroke-width: 1.0;" x1="277.5" x2="765.5" y1="292.4219" y2="292.4219"/><text fill="#000000" font-family="sans-serif" font-size="13" font-weight="bold" lengthAdjust="spacingAndGlyphs" textLength="7" x="284.5" y="287.5654">4</text><text fill="#000000" font-family="sans-serif" font-size="13" lengthAdjust="spacingAndGlyphs" textLength="162" x="295.5" y="287.5654">Resolve(EndpointReference)</text><polygon fill="#383838" points="288.5,318.7734,278.5,322.7734,288.5,326.7734,284.5,322.7734" style="stroke: #383838; stroke-width: 1.0;"/><line style="stroke: #383838; stroke-width: 1.0;" x1="282.5" x2="765.5" y1="322.7734" y2="322.7734"/><text fill="#000000" font-family="sans-serif" font-size="13" font-weight="bold" lengthAdjust="spacingAndGlyphs" textLength="7" x="294.5" y="317.917">5</text><text fill="#000000" font-family="sans-serif" font-size="13" lengthAdjust="spacingAndGlyphs" textLength="144" x="305.5" y="317.917">ResolveMatches(XAddrs)</text><path d="M12,351.7734 L107,351.7734 L107,359.7734 L97,369.7734 L12,369.7734 L12,351.7734 " fill="#EEEEEE" style="stroke: #000000; stroke-width: 1.0;"/><rect fill="none" height="1414.9531" style="stroke: #000000; stroke-width: 2.0;" width="1025.5" x="12" y="351.7734"/><text fill="#000000" font-family="sans-serif" font-size="13" font-weight="bold" lengthAdjust="spacingAndGlyphs" textLength="50" x="27" y="366.2686">secured</text><rect fill="#EEEEEE" filter="url(#ffu5lpujanmpj)" height="3" style="stroke: #EEEEEE; stroke-width: 1.0;" width="1044.5" x="3" y="391.3008"/><line style="stroke: #000000; stroke-width: 1.0;" x1="3" x2="1047.5" y1="391.3008" y2="391.3008"/><line style="stroke: #000000; stroke-width: 1.0;" x1="3" x2="1047.5" y1="394.3008" y2="394.3008"/><rect fill="#EEEEEE" filter="url(#ffu5lpujanmpj)" height="24.3516" style="stroke: #000000; stroke-width: 2.0;" width="179" x="435.75" y="380.125"/><text fill="#000000" font-family="sans-serif" font-size="13" font-weight="bold" lengthAdjust="spacingAndGlyphs" textLength="161" x="441.75" y="397.6201">Discover BICEPS services</text><polygon fill="#383838" points="754.5,432.8281,764.5,436.8281,754.5,440.8281,758.5,436.8281" style="stroke: #383838; stroke-width: 1.0;"/><line style="stroke: #383838; stroke-width: 1.0;" x1="277.5" x2="760.5" y1="436.8281" y2="436.8281"/><text fill="#000000" font-family="sans-serif" font-size="13" font-weight="bold" lengthAdjust="spacingAndGlyphs" textLength="7" x="284.5" y="431.9717">6</text><text fill="#000000" font-family="sans-serif" font-size="13" lengthAdjust="spacingAndGlyphs" textLength="75" x="295.5" y="431.9717">TransferGet()</text><polygon fill="#383838" points="288.5,463.1797,278.5,467.1797,288.5,471.1797,284.5,467.1797" style="stroke: #383838; stroke-width: 1.0;"/><line style="stroke: #383838; stroke-width: 1.0; stroke-dasharray: 2.0,2.0;" x1="282.5" x2="765.5" y1="467.1797" y2="467.1797"/><text fill="#000000" font-family="sans-serif" font-size="13" font-weight="bold" lengthAdjust="spacingAndGlyphs" textLength="7" x="294.5" y="462.3232">7</text><text fill="#000000" font-family="sans-serif" font-size="13" lengthAdjust="spacingAndGlyphs" textLength="454" x="305.5" y="462.3232">TransferGetResponse(HostingService, ThisDevice, ThisModel, HostedServices)</text><path d="M229,482.1797 L294,482.1797 L294,490.1797 L284,500.1797 L229,500.1797 L229,482.1797 " fill="#EEEEEE" style="stroke: #000000; stroke-width: 1.0;"/><rect fill="none" height="204.4609" style="stroke: #000000; stroke-width: 2.0;" width="585.5" x="229" y="482.1797"/><text fill="#000000" font-family="sans-serif" font-size="13" font-weight="bold" lengthAdjust="spacingAndGlyphs" textLength="20" x="244" y="496.6748">opt</text><text fill="#000000" font-family="sans-serif" font-size="11" font-weight="bold" lengthAdjust="spacingAndGlyphs" textLength="329" x="309" y="495.5986">[conditional if BICEPS interfaces are processed dynamically]</text><path d="M239,507.5313 L312,507.5313 L312,515.5313 L302,525.5313 L239,525.5313 L239,507.5313 " fill="#EEEEEE" style="stroke: #000000; stroke-width: 1.0;"/><rect fill="none" height="172.1094" style="stroke: #000000; stroke-width: 2.0;" width="565.5" x="239" y="507.5313"/><text fill="#000000" font-family="sans-serif" font-size="13" font-weight="bold" lengthAdjust="spacingAndGlyphs" textLength="28" x="254" y="522.0264">loop</text><text fill="#000000" font-family="sans-serif" font-size="11" font-weight="bold" lengthAdjust="spacingAndGlyphs" textLength="233" x="327" y="520.9502">[on EndpointReference in HostedServices]</text><polygon fill="#383838" points="754.5,544.2344,764.5,548.2344,754.5,552.2344,758.5,548.2344" style="stroke: #383838; stroke-width: 1.0;"/><line style="stroke: #383838; stroke-width: 1.0;" x1="277.5" x2="760.5" y1="548.2344" y2="548.2344"/><text fill="#000000" font-family="sans-serif" font-size="13" font-weight="bold" lengthAdjust="spacingAndGlyphs" textLength="7" x="284.5" y="543.3779">8</text><text fill="#000000" font-family="sans-serif" font-size="13" lengthAdjust="spacingAndGlyphs" textLength="83" x="295.5" y="543.3779">MetadataGet()</text><polygon fill="#383838" points="288.5,574.5859,278.5,578.5859,288.5,582.5859,284.5,578.5859" style="stroke: #383838; stroke-width: 1.0;"/><line style="stroke: #383838; stroke-width: 1.0; stroke-dasharray: 2.0,2.0;" x1="282.5" x2="765.5" y1="578.5859" y2="578.5859"/><text fill="#000000" font-family="sans-serif" font-size="13" font-weight="bold" lengthAdjust="spacingAndGlyphs" textLength="7" x="294.5" y="573.7295">9</text><text fill="#000000" font-family="sans-serif" font-size="13" lengthAdjust="spacingAndGlyphs" textLength="306" x="305.5" y="573.7295">MetadataGetResponse([WsdlDescription], [WsdlUrl])</text><path d="M249,593.5859 L314,593.5859 L314,601.5859 L304,611.5859 L249,611.5859 L249,593.5859 " fill="#EEEEEE" style="stroke: #000000; stroke-width: 1.0;"/><rect fill="none" height="79.0547" style="stroke: #000000; stroke-width: 2.0;" width="545.5" x="249" y="593.5859"/><text fill="#000000" font-family="sans-serif" font-size="13" font-weight="bold" lengthAdjust="spacingAndGlyphs" textLength="20" x="264" y="608.0811">opt</text><text fill="#000000" font-family="sans-serif" font-size="11" font-weight="bold" lengthAdjust="spacingAndGlyphs" textLength="420" x="329" y="607.0049">[conditional if WSDL description was not enclosed in MetadataGetResponse]</text><polygon fill="#383838" points="754.5,630.2891,764.5,634.2891,754.5,638.2891,758.5,634.2891" style="stroke: #383838; stroke-width: 1.0;"/><line style="stroke: #383838; stroke-width: 1.0;" x1="277.5" x2="760.5" y1="634.2891" y2="634.2891"/><text fill="#000000" font-family="sans-serif" font-size="13" font-weight="bold" lengthAdjust="spacingAndGlyphs" textLength="14" x="284.5" y="629.4326">10</text><text fill="#000000" font-family="sans-serif" font-size="13" lengthAdjust="spacingAndGlyphs" textLength="119" x="302.5" y="629.4326">HTTP_GET(WsdlUrl)</text><polygon fill="#383838" points="288.5,660.6406,278.5,664.6406,288.5,668.6406,284.5,664.6406" style="stroke: #383838; stroke-width: 1.0;"/><line style="stroke: #383838; stroke-width: 1.0; stroke-dasharray: 2.0,2.0;" x1="282.5" x2="765.5" y1="664.6406" y2="664.6406"/><text fill="#000000" font-family="sans-serif" font-size="13" font-weight="bold" lengthAdjust="spacingAndGlyphs" textLength="14" x="294.5" y="659.7842">11</text><text fill="#000000" font-family="sans-serif" font-size="13" lengthAdjust="spacingAndGlyphs" textLength="248" x="312.5" y="659.7842">HTTP_GET_RESPONSE(WsdlDescription)</text><rect fill="#EEEEEE" filter="url(#ffu5lpujanmpj)" height="3" style="stroke: #EEEEEE; stroke-width: 1.0;" width="1044.5" x="3" y="714.8164"/><line style="stroke: #000000; stroke-width: 1.0;" x1="3" x2="1047.5" y1="714.8164" y2="714.8164"/><line style="stroke: #000000; stroke-width: 1.0;" x1="3" x2="1047.5" y1="717.8164" y2="717.8164"/><rect fill="#EEEEEE" filter="url(#ffu5lpujanmpj)" height="24.3516" style="stroke: #000000; stroke-width: 2.0;" width="182" x="434.25" y="703.6406"/><text fill="#000000" font-family="sans-serif" font-size="13" font-weight="bold" lengthAdjust="spacingAndGlyphs" textLength="164" x="440.25" y="721.1357">Subscribe to MDIB reports</text><polygon fill="#383838" points="754.5,777.6953,764.5,781.6953,754.5,785.6953,758.5,781.6953" style="stroke: #383838; stroke-width: 1.0;"/><line style="stroke: #383838; stroke-width: 1.0;" x1="277.5" x2="760.5" y1="781.6953" y2="781.6953"/><text fill="#000000" font-family="sans-serif" font-size="13" font-weight="bold" lengthAdjust="spacingAndGlyphs" textLength="14" x="284.5" y="776.8389">12</text><text fill="#000000" font-family="sans-serif" font-size="13" lengthAdjust="spacingAndGlyphs" textLength="95" x="302.5" y="776.8389">Subscribe(Filter)</text><path d="M22,742.9922 L22,801.9922 L268,801.9922 L268,752.9922 L258,742.9922 L22,742.9922 " fill="#ECECEC" filter="url(#ffu5lpujanmpj)" style="stroke: #383838; stroke-width: 1.0;"/><path d="M258,742.9922 L258,752.9922 L268,752.9922 L258,742.9922 " fill="#ECECEC" style="stroke: #383838; stroke-width: 1.0;"/><text fill="#000000" font-family="sans-serif" font-size="13" lengthAdjust="spacingAndGlyphs" textLength="225" x="28" y="761.4873">Filter is a list of topics to subscribe for,</text><text fill="#000000" font-family="sans-serif" font-size="13" lengthAdjust="spacingAndGlyphs" textLength="188" x="28" y="777.8389">i.e. metrics, alerts, components,</text><text fill="#000000" font-family="sans-serif" font-size="13" lengthAdjust="spacingAndGlyphs" textLength="162" x="28" y="794.1904">context states or waveforms</text><polygon fill="#383838" points="288.5,850.75,278.5,854.75,288.5,858.75,284.5,854.75" style="stroke: #383838; stroke-width: 1.0;"/><line style="stroke: #383838; stroke-width: 1.0; stroke-dasharray: 2.0,2.0;" x1="282.5" x2="765.5" y1="854.75" y2="854.75"/><text fill="#000000" font-family="sans-serif" font-size="13" font-weight="bold" lengthAdjust="spacingAndGlyphs" textLength="14" x="294.5" y="849.8936">13</text><text fill="#000000" font-family="sans-serif" font-size="13" lengthAdjust="spacingAndGlyphs" textLength="340" x="312.5" y="849.8936">SubscribeResponse(SubscriptionManager, ExpirationTime)</text><path d="M771,816.0469 L771,875.0469 L1018,875.0469 L1018,826.0469 L1008,816.0469 L771,816.0469 " fill="#ECECEC" filter="url(#ffu5lpujanmpj)" style="stroke: #383838; stroke-width: 1.0;"/><path d="M1008,816.0469 L1008,826.0469 L1018,826.0469 L1008,816.0469 " fill="#ECECEC" style="stroke: #383838; stroke-width: 1.0;"/><text fill="#000000" font-family="sans-serif" font-size="13" lengthAdjust="spacingAndGlyphs" textLength="226" x="777" y="834.542">Subscription manager is an endpoint to</text><text fill="#000000" font-family="sans-serif" font-size="13" lengthAdjust="spacingAndGlyphs" textLength="217" x="777" y="850.8936">request subscription removal, renewal</text><text fill="#000000" font-family="sans-serif" font-size="13" lengthAdjust="spacingAndGlyphs" textLength="99" x="777" y="867.2451">or status retrieval</text><path d="M229,891.1016 L295,891.1016 L295,899.1016 L285,909.1016 L229,909.1016 L229,891.1016 " fill="#EEEEEE" style="stroke: #000000; stroke-width: 1.0;"/><rect fill="none" height="249.8125" style="stroke: #000000; stroke-width: 2.0;" width="585.5" x="229" y="891.1016"/><text fill="#000000" font-family="sans-serif" font-size="13" font-weight="bold" lengthAdjust="spacingAndGlyphs" textLength="21" x="244" y="905.5967">par</text><path d="M239,916.4531 L304,916.4531 L304,924.4531 L294,934.4531 L239,934.4531 L239,916.4531 " fill="#EEEEEE" style="stroke: #000000; stroke-width: 1.0;"/><rect fill="none" height="111.4063" style="stroke: #000000; stroke-width: 2.0;" width="565.5" x="239" y="916.4531"/><text fill="#000000" font-family="sans-serif" font-size="13" font-weight="bold" lengthAdjust="spacingAndGlyphs" textLength="20" x="254" y="930.9482">opt</text><text fill="#000000" font-family="sans-serif" font-size="11" font-weight="bold" lengthAdjust="spacingAndGlyphs" textLength="247" x="319" y="929.8721">[if subscription is supposed to be kept alive]</text><path d="M249,941.8047 L322,941.8047 L322,949.8047 L312,959.8047 L249,959.8047 L249,941.8047 " fill="#EEEEEE" style="stroke: #000000; stroke-width: 1.0;"/><rect fill="none" height="79.0547" style="stroke: #000000; stroke-width: 2.0;" width="545.5" x="249" y="941.8047"/><text fill="#000000" font-family="sans-serif" font-size="13" font-weight="bold" lengthAdjust="spacingAndGlyphs" textLength="28" x="264" y="956.2998">loop</text><text fill="#000000" font-family="sans-serif" font-size="11" font-weight="bold" lengthAdjust="spacingAndGlyphs" textLength="217" x="337" y="955.2236">[shortly before ExpirationTime expires]</text><polygon fill="#383838" points="754.5,978.5078,764.5,982.5078,754.5,986.5078,758.5,982.5078" style="stroke: #383838; stroke-width: 1.0;"/><line style="stroke: #383838; stroke-width: 1.0;" x1="277.5" x2="760.5" y1="982.5078" y2="982.5078"/><text fill="#000000" font-family="sans-serif" font-size="13" font-weight="bold" lengthAdjust="spacingAndGlyphs" textLength="14" x="284.5" y="977.6514">14</text><text fill="#000000" font-family="sans-serif" font-size="13" lengthAdjust="spacingAndGlyphs" textLength="169" x="302.5" y="977.6514">Renew(SubscriptionManager)</text><polygon fill="#383838" points="288.5,1008.8594,278.5,1012.8594,288.5,1016.8594,284.5,1012.8594" style="stroke: #383838; stroke-width: 1.0;"/><line style="stroke: #383838; stroke-width: 1.0; stroke-dasharray: 2.0,2.0;" x1="282.5" x2="765.5" y1="1012.8594" y2="1012.8594"/><text fill="#000000" font-family="sans-serif" font-size="13" font-weight="bold" lengthAdjust="spacingAndGlyphs" textLength="14" x="294.5" y="1008.0029">15</text><text fill="#000000" font-family="sans-serif" font-size="13" lengthAdjust="spacingAndGlyphs" textLength="191" x="312.5" y="1008.0029">RenewResponse(ExpirationTime)</text><path d="M249,1041.8594 L322,1041.8594 L322,1049.8594 L312,1059.8594 L249,1059.8594 L249,1041.8594 " fill="#EEEEEE" style="stroke: #000000; stroke-width: 1.0;"/><rect fill="none" height="92.0547" style="stroke: #000000; stroke-width: 2.0;" width="545.5" x="249" y="1041.8594"/><text fill="#000000" font-family="sans-serif" font-size="13" font-weight="bold" lengthAdjust="spacingAndGlyphs" textLength="28" x="264" y="1056.3545">loop</text><text fill="#000000" font-family="sans-serif" font-size="11" font-weight="bold" lengthAdjust="spacingAndGlyphs" textLength="170" x="337" y="1055.2783">[while subscription is running]</text><polygon fill="#383838" points="288.5,1078.5625,278.5,1082.5625,288.5,1086.5625,284.5,1082.5625" style="stroke: #383838; stroke-width: 1.0;"/><line style="stroke: #383838; stroke-width: 1.0;" x1="282.5" x2="765.5" y1="1082.5625" y2="1082.5625"/><text fill="#000000" font-family="sans-serif" font-size="13" font-weight="bold" lengthAdjust="spacingAndGlyphs" textLength="14" x="294.5" y="1077.7061">16</text><text fill="#000000" font-family="sans-serif" font-size="13" lengthAdjust="spacingAndGlyphs" textLength="119" x="312.5" y="1077.7061">Notification(Payload)</text><line style="stroke: #383838; stroke-width: 1.0;" x1="277.5" x2="319.5" y1="1112.9141" y2="1112.9141"/><line style="stroke: #383838; stroke-width: 1.0;" x1="319.5" x2="319.5" y1="1112.9141" y2="1125.9141"/><line style="stroke: #383838; stroke-width: 1.0;" x1="278.5" x2="319.5" y1="1125.9141" y2="1125.9141"/><polygon fill="#383838" points="288.5,1121.9141,278.5,1125.9141,288.5,1129.9141,284.5,1125.9141" style="stroke: #383838; stroke-width: 1.0;"/><text fill="#000000" font-family="sans-serif" font-size="13" font-weight="bold" lengthAdjust="spacingAndGlyphs" textLength="14" x="284.5" y="1108.0576">17</text><text fill="#000000" font-family="sans-serif" font-size="13" lengthAdjust="spacingAndGlyphs" textLength="84" x="302.5" y="1108.0576">Buffer Payload</text><rect fill="#EEEEEE" filter="url(#ffu5lpujanmpj)" height="3" style="stroke: #EEEEEE; stroke-width: 1.0;" width="1044.5" x="3" y="1169.0898"/><line style="stroke: #000000; stroke-width: 1.0;" x1="3" x2="1047.5" y1="1169.0898" y2="1169.0898"/><line style="stroke: #000000; stroke-width: 1.0;" x1="3" x2="1047.5" y1="1172.0898" y2="1172.0898"/><rect fill="#EEEEEE" filter="url(#ffu5lpujanmpj)" height="24.3516" style="stroke: #000000; stroke-width: 2.0;" width="257" x="396.75" y="1157.9141"/><text fill="#000000" font-family="sans-serif" font-size="13" font-weight="bold" lengthAdjust="spacingAndGlyphs" textLength="239" x="402.75" y="1175.4092">Discovery SP capabilities and context</text><polygon fill="#383838" points="754.5,1210.6172,764.5,1214.6172,754.5,1218.6172,758.5,1214.6172" style="stroke: #383838; stroke-width: 1.0;"/><line style="stroke: #383838; stroke-width: 1.0;" x1="277.5" x2="760.5" y1="1214.6172" y2="1214.6172"/><text fill="#000000" font-family="sans-serif" font-size="13" font-weight="bold" lengthAdjust="spacingAndGlyphs" textLength="14" x="284.5" y="1209.7607">18</text><text fill="#000000" font-family="sans-serif" font-size="13" lengthAdjust="spacingAndGlyphs" textLength="57" x="302.5" y="1209.7607">GetMdib()</text><polygon fill="#383838" points="288.5,1240.9688,278.5,1244.9688,288.5,1248.9688,284.5,1244.9688" style="stroke: #383838; stroke-width: 1.0;"/><line style="stroke: #383838; stroke-width: 1.0; stroke-dasharray: 2.0,2.0;" x1="282.5" x2="765.5" y1="1244.9688" y2="1244.9688"/><text fill="#000000" font-family="sans-serif" font-size="13" font-weight="bold" lengthAdjust="spacingAndGlyphs" textLength="14" x="294.5" y="1240.1123">19</text><text fill="#000000" font-family="sans-serif" font-size="13" lengthAdjust="spacingAndGlyphs" textLength="378" x="312.5" y="1240.1123">GetMdibResponse(MdDescription, MdState [incl. ContextStates])</text><path d="M249,1259.9688 L314,1259.9688 L314,1267.9688 L304,1277.9688 L249,1277.9688 L249,1259.9688 " fill="#EEEEEE" style="stroke: #000000; stroke-width: 1.0;"/><rect fill="none" height="79.0547" style="stroke: #000000; stroke-width: 2.0;" width="545.5" x="249" y="1259.9688"/><text fill="#000000" font-family="sans-serif" font-size="13" font-weight="bold" lengthAdjust="spacingAndGlyphs" textLength="20" x="264" y="1274.4639">opt</text><text fill="#000000" font-family="sans-serif" font-size="11" font-weight="bold" lengthAdjust="spacingAndGlyphs" textLength="348" x="329" y="1273.3877">[conditional if context states were empty in GetMdibResponse]</text><polygon fill="#383838" points="754.5,1296.6719,764.5,1300.6719,754.5,1304.6719,758.5,1300.6719" style="stroke: #383838; stroke-width: 1.0;"/><line style="stroke: #383838; stroke-width: 1.0;" x1="277.5" x2="760.5" y1="1300.6719" y2="1300.6719"/><text fill="#000000" font-family="sans-serif" font-size="13" font-weight="bold" lengthAdjust="spacingAndGlyphs" textLength="14" x="284.5" y="1295.8154">20</text><text fill="#000000" font-family="sans-serif" font-size="13" lengthAdjust="spacingAndGlyphs" textLength="112" x="302.5" y="1295.8154">GetContextStates()</text><polygon fill="#383838" points="288.5,1327.0234,278.5,1331.0234,288.5,1335.0234,284.5,1331.0234" style="stroke: #383838; stroke-width: 1.0;"/><line style="stroke: #383838; stroke-width: 1.0; stroke-dasharray: 2.0,2.0;" x1="282.5" x2="765.5" y1="1331.0234" y2="1331.0234"/><text fill="#000000" font-family="sans-serif" font-size="13" font-weight="bold" lengthAdjust="spacingAndGlyphs" textLength="14" x="294.5" y="1326.167">21</text><text fill="#000000" font-family="sans-serif" font-size="13" lengthAdjust="spacingAndGlyphs" textLength="253" x="312.5" y="1326.167">GetContextStatesResponse(ContextStates)</text><line style="stroke: #383838; stroke-width: 1.0;" x1="277.5" x2="319.5" y1="1368.375" y2="1368.375"/><line style="stroke: #383838; stroke-width: 1.0;" x1="319.5" x2="319.5" y1="1368.375" y2="1381.375"/><line style="stroke: #383838; stroke-width: 1.0;" x1="278.5" x2="319.5" y1="1381.375" y2="1381.375"/><polygon fill="#383838" points="288.5,1377.375,278.5,1381.375,288.5,1385.375,284.5,1381.375" style="stroke: #383838; stroke-width: 1.0;"/><text fill="#000000" font-family="sans-serif" font-size="13" font-weight="bold" lengthAdjust="spacingAndGlyphs" textLength="14" x="284.5" y="1363.5186">22</text><text fill="#000000" font-family="sans-serif" font-size="13" lengthAdjust="spacingAndGlyphs" textLength="441" x="302.5" y="1363.5186">Establish proxy MDIB from MdDescription, MdState including context states</text><line style="stroke: #383838; stroke-width: 1.0;" x1="277.5" x2="319.5" y1="1411.7266" y2="1411.7266"/><line style="stroke: #383838; stroke-width: 1.0;" x1="319.5" x2="319.5" y1="1411.7266" y2="1424.7266"/><line style="stroke: #383838; stroke-width: 1.0;" x1="278.5" x2="319.5" y1="1424.7266" y2="1424.7266"/><polygon fill="#383838" points="288.5,1420.7266,278.5,1424.7266,288.5,1428.7266,284.5,1424.7266" style="stroke: #383838; stroke-width: 1.0;"/><text fill="#000000" font-family="sans-serif" font-size="13" font-weight="bold" lengthAdjust="spacingAndGlyphs" textLength="14" x="284.5" y="1406.8701">23</text><text fill="#000000" font-family="sans-serif" font-size="13" lengthAdjust="spacingAndGlyphs" textLength="322" x="302.5" y="1406.8701">Stop buffering and apply buffered reports on proxy MDIB</text><rect fill="#EEEEEE" filter="url(#ffu5lpujanmpj)" height="3" style="stroke: #EEEEEE; stroke-width: 1.0;" width="1044.5" x="3" y="1453.9023"/><line style="stroke: #000000; stroke-width: 1.0;" x1="3" x2="1047.5" y1="1453.9023" y2="1453.9023"/><line style="stroke: #000000; stroke-width: 1.0;" x1="3" x2="1047.5" y1="1456.9023" y2="1456.9023"/><rect fill="#EEEEEE" filter="url(#ffu5lpujanmpj)" height="24.3516" style="stroke: #000000; stroke-width: 2.0;" width="167" x="441.75" y="1442.7266"/><text fill="#000000" font-family="sans-serif" font-size="13" font-weight="bold" lengthAdjust="spacingAndGlyphs" textLength="149" x="447.75" y="1460.2217">Retrieve update reports</text><path d="M249,1484.0781 L322,1484.0781 L322,1492.0781 L312,1502.0781 L249,1502.0781 L249,1484.0781 " fill="#EEEEEE" style="stroke: #000000; stroke-width: 1.0;"/><rect fill="none" height="92.0547" style="stroke: #000000; stroke-width: 2.0;" width="545.5" x="249" y="1484.0781"/><text fill="#000000" font-family="sans-serif" font-size="13" font-weight="bold" lengthAdjust="spacingAndGlyphs" textLength="28" x="264" y="1498.5732">loop</text><text fill="#000000" font-family="sans-serif" font-size="11" font-weight="bold" lengthAdjust="spacingAndGlyphs" textLength="170" x="337" y="1497.4971">[while subscription is running]</text><polygon fill="#383838" points="288.5,1520.7813,278.5,1524.7813,288.5,1528.7813,284.5,1524.7813" style="stroke: #383838; stroke-width: 1.0;"/><line style="stroke: #383838; stroke-width: 1.0;" x1="282.5" x2="765.5" y1="1524.7813" y2="1524.7813"/><text fill="#000000" font-family="sans-serif" font-size="13" font-weight="bold" lengthAdjust="spacingAndGlyphs" textLength="14" x="294.5" y="1519.9248">24</text><text fill="#000000" font-family="sans-serif" font-size="13" lengthAdjust="spacingAndGlyphs" textLength="119" x="312.5" y="1519.9248">Notification(Payload)</text><line style="stroke: #383838; stroke-width: 1.0;" x1="277.5" x2="319.5" y1="1555.1328" y2="1555.1328"/><line style="stroke: #383838; stroke-width: 1.0;" x1="319.5" x2="319.5" y1="1555.1328" y2="1568.1328"/><line style="stroke: #383838; stroke-width: 1.0;" x1="278.5" x2="319.5" y1="1568.1328" y2="1568.1328"/><polygon fill="#383838" points="288.5,1564.1328,278.5,1568.1328,288.5,1572.1328,284.5,1568.1328" style="stroke: #383838; stroke-width: 1.0;"/><text fill="#000000" font-family="sans-serif" font-size="13" font-weight="bold" lengthAdjust="spacingAndGlyphs" textLength="14" x="284.5" y="1550.2764">25</text><text fill="#000000" font-family="sans-serif" font-size="13" lengthAdjust="spacingAndGlyphs" textLength="174" x="302.5" y="1550.2764">Apply Payload on proxy MDIB</text><rect fill="#EEEEEE" filter="url(#ffu5lpujanmpj)" height="3" style="stroke: #EEEEEE; stroke-width: 1.0;" width="1044.5" x="3" y="1604.3086"/><line style="stroke: #000000; stroke-width: 1.0;" x1="3" x2="1047.5" y1="1604.3086" y2="1604.3086"/><line style="stroke: #000000; stroke-width: 1.0;" x1="3" x2="1047.5" y1="1607.3086" y2="1607.3086"/><rect fill="#EEEEEE" filter="url(#ffu5lpujanmpj)" height="24.3516" style="stroke: #000000; stroke-width: 2.0;" width="155" x="447.75" y="1593.1328"/><text fill="#000000" font-family="sans-serif" font-size="13" font-weight="bold" lengthAdjust="spacingAndGlyphs" textLength="137" x="453.75" y="1610.6279">Connection shutdown</text><path d="M249,1634.4844 L310,1634.4844 L310,1642.4844 L300,1652.4844 L249,1652.4844 L249,1634.4844 " fill="#EEEEEE" style="stroke: #000000; stroke-width: 1.0;"/><rect fill="none" height="125.2422" style="stroke: #000000; stroke-width: 2.0;" width="545.5" x="249" y="1634.4844"/><text fill="#000000" font-family="sans-serif" font-size="13" font-weight="bold" lengthAdjust="spacingAndGlyphs" textLength="16" x="264" y="1648.9795">alt</text><text fill="#000000" font-family="sans-serif" font-size="11" font-weight="bold" lengthAdjust="spacingAndGlyphs" textLength="181" x="325" y="1647.9033">[SC decides to quit subscription]</text><polygon fill="#383838" points="754.5,1671.1875,764.5,1675.1875,754.5,1679.1875,758.5,1675.1875" style="stroke: #383838; stroke-width: 1.0;"/><line style="stroke: #383838; stroke-width: 1.0;" x1="277.5" x2="760.5" y1="1675.1875" y2="1675.1875"/><text fill="#000000" font-family="sans-serif" font-size="13" font-weight="bold" lengthAdjust="spacingAndGlyphs" textLength="14" x="284.5" y="1670.3311">26</text><text fill="#000000" font-family="sans-serif" font-size="13" lengthAdjust="spacingAndGlyphs" textLength="202" x="302.5" y="1670.3311">Unsubscribe(SubscriptionManager)</text><polygon fill="#383838" points="288.5,1701.5391,278.5,1705.5391,288.5,1709.5391,284.5,1705.5391" style="stroke: #383838; stroke-width: 1.0;"/><line style="stroke: #383838; stroke-width: 1.0; stroke-dasharray: 2.0,2.0;" x1="282.5" x2="765.5" y1="1705.5391" y2="1705.5391"/><text fill="#000000" font-family="sans-serif" font-size="13" font-weight="bold" lengthAdjust="spacingAndGlyphs" textLength="14" x="294.5" y="1700.6826">27</text><text fill="#000000" font-family="sans-serif" font-size="13" lengthAdjust="spacingAndGlyphs" textLength="138" x="312.5" y="1700.6826">UnsubscribeResponse()</text><line style="stroke: #000000; stroke-width: 1.0; stroke-dasharray: 2.0,2.0;" x1="249" x2="794.5" y1="1714.5391" y2="1714.5391"/><text fill="#000000" font-family="sans-serif" font-size="11" font-weight="bold" lengthAdjust="spacingAndGlyphs" textLength="180" x="254" y="1725.958">[SP decides to quit subscription]</text><polygon fill="#383838" points="288.5,1747.7266,278.5,1751.7266,288.5,1755.7266,284.5,1751.7266" style="stroke: #383838; stroke-width: 1.0;"/><line style="stroke: #383838; stroke-width: 1.0;" x1="282.5" x2="765.5" y1="1751.7266" y2="1751.7266"/><text fill="#000000" font-family="sans-serif" font-size="13" font-weight="bold" lengthAdjust="spacingAndGlyphs" textLength="14" x="294.5" y="1746.8701">28</text><text fill="#000000" font-family="sans-serif" font-size="13" lengthAdjust="spacingAndGlyphs" textLength="225" x="312.5" y="1746.8701">SubscriptionEnd(SubscriptionManager)</text><path d="M249,1780.7266 L360,1780.7266 L360,1788.7266 L350,1798.7266 L249,1798.7266 L249,1780.7266 " fill="#EEEEEE" style="stroke: #000000; stroke-width: 1.0;"/><rect fill="none" height="48.7031" style="stroke: #000000; stroke-width: 2.0;" width="545.5" x="249" y="1780.7266"/><text fill="#000000" font-family="sans-serif" font-size="13" font-weight="bold" lengthAdjust="spacingAndGlyphs" textLength="66" x="264" y="1795.2217">unsecured</text><line style="stroke: #383838; stroke-width: 1.0;" x1="277.5" x2="287.5" y1="1821.4297" y2="1817.4297"/><line style="stroke: #383838; stroke-width: 1.0;" x1="277.5" x2="287.5" y1="1821.4297" y2="1825.4297"/><line style="stroke: #383838; stroke-width: 1.0;" x1="277.5" x2="765.5" y1="1821.4297" y2="1821.4297"/><text fill="#000000" font-family="sans-serif" font-size="13" font-weight="bold" lengthAdjust="spacingAndGlyphs" textLength="14" x="294.5" y="1816.5732">29</text><text fill="#000000" font-family="sans-serif" font-size="13" lengthAdjust="spacingAndGlyphs" textLength="140" x="312.5" y="1816.5732">Bye(EndpointReference)</text><!--MD5=[5fd533e9d8364fec190ac7fb586a91a5]
@startuml

!include _sequence_config.puml.incl

group unsecured

    == Discover network "topology ==
    
    !include network_topology_discovery/network_topology_discovery__start.puml.incl

end 

group secured

    == Discover BICEPS services ==
    
    !include biceps_services_discovery/biceps_services_discovery__main.puml.incl
    
    == Subscribe to MDIB reports ==
    
    !include update_report_retrieval/update_report_retrieval__subscribe.puml.incl
    
    par
        !include update_report_retrieval/update_report_retrieval__auto_renew.puml.incl
        loop while subscription is running
            sdc_sc <- sdc_sp: Notification(Payload)
            sdc_sc <- sdc_sc: Buffer Payload 
        end
    end

    == Discovery SP capabilities and context ==

    !include sp_capabilities_and_context_discovery/sp_capabilities_and_context_discovery__main.puml.incl


    sdc_sc -> sdc_sc: Establish proxy MDIB from MdDescription, MdState including context states
    sdc_sc -> sdc_sc: Stop buffering and apply buffered reports on proxy MDIB

    == Retrieve update reports ==

    loop while subscription is running
        sdc_sc <- sdc_sp: Notification(Payload)
        sdc_sc <- sdc_sc: Apply Payload on proxy MDIB 
    end

    == Connection shutdown ==

    !include update_report_retrieval/update_report_retrieval__unsubscribe.puml.incl
    
end

group unsecured

    !include network_topology_discovery/network_topology_discovery__stop.puml.incl

end

@enduml

@startuml

skinparam monochrome true
autonumber


participant "SC" as sdc_sc
participant "SP" as sdc_sp

group unsecured

    == Discover network "topology ==
    
alt
    sdc_sc <<- sdc_sp: Hello(EndpointReference, Types, Scopes, [XAddrs])
else
    sdc_sc ->> sdc_sp: Probe(Types, Scopes)
    sdc_sc <- sdc_sp: ProbeMatches(EndpointReference, [XAddrs])
end
    
opt if XAddrs were missing from ProbeMatches or Hello
    sdc_sc ->> sdc_sp: Resolve(EndpointReference)
    sdc_sc <- sdc_sp: ResolveMatches(XAddrs)
end

end 

group secured

    == Discover BICEPS services ==
    
sdc_sc -> sdc_sp: TransferGet()
sdc_sc <- - sdc_sp: TransferGetResponse(HostingService, ThisDevice, ThisModel, HostedServices)

opt conditional if BICEPS interfaces are processed dynamically
    loop on EndpointReference in HostedServices
        sdc_sc -> sdc_sp: MetadataGet()
        sdc_sc <- - sdc_sp: MetadataGetResponse([WsdlDescription], [WsdlUrl])
        opt conditional if WSDL description was not enclosed in MetadataGetResponse
            sdc_sc -> sdc_sp: HTTP_GET(WsdlUrl)
            sdc_sc <- - sdc_sp: HTTP_GET_RESPONSE(WsdlDescription)
        end 
    end
end
    
    == Subscribe to MDIB reports ==
    
sdc_sc -> sdc_sp: Subscribe(Filter)
note left: Filter is a list of topics to subscribe for,\ni.e. metrics, alerts, components,\ncontext states or waveforms 
sdc_sc <- - sdc_sp: SubscribeResponse(SubscriptionManager, ExpirationTime)
note right: Subscription manager is an endpoint to\nrequest subscription removal, renewal\nor status retrieval
    
    par
opt if subscription is supposed to be kept alive
    loop shortly before ExpirationTime expires
        sdc_sc -> sdc_sp: Renew(SubscriptionManager)
        sdc_sc <- - sdc_sp: RenewResponse(ExpirationTime)
    end
end
        loop while subscription is running
            sdc_sc <- sdc_sp: Notification(Payload)
            sdc_sc <- sdc_sc: Buffer Payload 
        end
    end

    == Discovery SP capabilities and context ==

sdc_sc -> sdc_sp: GetMdib()
sdc_sc <- - sdc_sp: GetMdibResponse(MdDescription, MdState [incl. ContextStates])

opt conditional if context states were empty in GetMdibResponse
    sdc_sc -> sdc_sp: GetContextStates()
    sdc_sc <- - sdc_sp: GetContextStatesResponse(ContextStates)
end


    sdc_sc -> sdc_sc: Establish proxy MDIB from MdDescription, MdState including context states
    sdc_sc -> sdc_sc: Stop buffering and apply buffered reports on proxy MDIB

    == Retrieve update reports ==

    loop while subscription is running
        sdc_sc <- sdc_sp: Notification(Payload)
        sdc_sc <- sdc_sc: Apply Payload on proxy MDIB 
    end

    == Connection shutdown ==

alt SC decides to quit subscription
    sdc_sc -> sdc_sp: Unsubscribe(SubscriptionManager)
    sdc_sc <- - sdc_sp: UnsubscribeResponse()
else SP decides to quit subscription
    sdc_sc <- sdc_sp: SubscriptionEnd(SubscriptionManager)
end
    
end

group unsecured

sdc_sc <<- sdc_sp: Bye(EndpointReference)

end

@enduml

PlantUML version 1.2020.15(Sun Jun 28 13:39:45 CEST 2020)
(GPL source distribution)
Java Runtime: Java(TM) SE Runtime Environment
JVM: Java HotSpot(TM) 64-Bit Server VM
Default Encoding: Cp1252
Language: de
Country: DE
--></g></svg>