<svg width="1280" height="720" xmlns="http://www.w3.org/2000/svg" xmlns:xlink="http://www.w3.org/1999/xlink" overflow="hidden"><defs><clipPath id="clip0"><rect x="0" y="0" width="1280" height="720"/></clipPath></defs><g clip-path="url(#clip0)"><rect x="0" y="0" width="1280" height="720" fill="#FFFFFF"/><rect x="429.5" y="534.5" width="260" height="103" stroke="#2F528F" stroke-width="1.33333" stroke-miterlimit="8" fill="#4472C4"/><text fill="#FFFFFF" font-family="Calibri,Calibri_MSFontService,sans-serif" font-weight="400" font-size="21" transform="translate(488.264 593)">20702 <tspan font-size="21" x="59" y="0">-</tspan><tspan font-size="21" x="70.3334" y="0">MDPWS</tspan></text><rect x="429.5" y="485.5" width="343" height="42" stroke="#2F528F" stroke-width="1.33333" stroke-miterlimit="8" fill="#4472C4"/><text fill="#FFFFFF" font-family="Calibri,Calibri_MSFontService,sans-serif" font-weight="400" font-size="21" transform="translate(462.275 513)">10207 <tspan font-size="21" x="59" y="0">–</tspan><tspan font-size="21" x="74.5" y="0">DIM and Service Model</tspan></text><rect x="289.5" y="652.5" width="607" height="24" stroke="#2F528F" stroke-width="1.33333" stroke-miterlimit="8" fill="none"/><text font-family="Calibri,Calibri_MSFontService,sans-serif" font-weight="400" font-size="21" transform="translate(418.701 671)">Physical Layers (Ethernet, Wi<tspan font-size="21" x="248.34" y="0">-</tspan>Fi, BT, etc.)</text><rect x="289.5" y="485.5" width="135" height="151" stroke="#2F528F" stroke-width="1.33333" stroke-miterlimit="8" fill="#4472C4"/><text fill="#FFFFFF" font-family="Calibri,Calibri_MSFontService,sans-serif" font-weight="400" font-size="21" transform="translate(321.999 542)">20701 <tspan font-size="21" x="59" y="0">–</tspan><tspan font-size="21" x="-18.84" y="26">Architecture </tspan><tspan font-size="21" x="-20.2133" y="51">and Protocol</tspan></text><rect x="291.5" y="268.5" width="604" height="43" stroke="#2F528F" stroke-width="1.33333" stroke-miterlimit="8" fill="#C5E0B4"/><text font-family="Calibri,Calibri_MSFontService,sans-serif" font-weight="400" font-size="21" transform="translate(345.249 297)">Key Interoperability Properties &amp; Controls (<tspan font-size="21" x="372.373" y="0">PRACtical</tspan><tspan font-size="21" x="459.207" y="0">SES)</tspan></text><rect x="290.5" y="435.5" width="481" height="45" stroke="#2F528F" stroke-width="1.33333" stroke-miterlimit="8" fill="#70AD47"/><text font-family="Calibri,Calibri_MSFontService,sans-serif" font-weight="400" font-size="21" transform="translate(318.667 465)">IEEE 11073<tspan font-size="21" x="95.8333" y="0">-</tspan>1070x Participant Key Purposes (PKP)</text><rect x="291.5" y="386.5" width="481" height="43" stroke="#2F528F" stroke-width="1.33333" stroke-miterlimit="8" fill="#FFE699"/><text font-family="Calibri,Calibri_MSFontService,sans-serif" font-weight="400" font-size="21" transform="translate(334.045 415)">IEEE 11073-1072x -10799 SDC Specializations</text><rect x="692.5" y="534.5" width="80" height="102" stroke="#2F528F" stroke-width="1.33333" stroke-miterlimit="8" stroke-dasharray="5.33333 4" fill="none"/><text font-family="Calibri,Calibri_MSFontService,sans-serif" font-weight="400" font-size="16" transform="translate(706.779 552)">2070x <tspan font-size="16" x="43.3333" y="0">–</tspan><tspan font-size="16" x="6.07996" y="19">gRPC/ </tspan><tspan font-size="16" x="-4.46667" y="38">Protobuf</tspan><tspan font-size="16" x="51.8" y="38">, </tspan><tspan font-size="16" x="-4.40002" y="58">REST, IoT, </tspan><tspan font-size="16" x="2.83331" y="77">DDS, …</tspan></text><rect x="916.5" y="215.5" width="191" height="45" stroke="#FFC000" stroke-linejoin="round" stroke-miterlimit="10" fill="none"/><text font-family="Calibri,Calibri_MSFontService,sans-serif" font-weight="400" font-size="15" transform="translate(949.026 233)">Sensors / Actuators / <tspan font-size="15" x="2.58667" y="17">Intelligence Bundles</tspan></text><rect x="290.5" y="137.5" width="605" height="32" stroke="#2F528F" stroke-width="1.33333" stroke-miterlimit="8" fill="#00B0F0"/><text font-family="Calibri,Calibri_MSFontService,sans-serif" font-weight="400" font-size="21" transform="translate(403.97 160)">User Narratives / Use Cases / Requirements</text><rect x="290.5" y="175.5" width="605" height="32" stroke="#2F528F" stroke-width="1.33333" stroke-miterlimit="8" fill="#F8CBAD"/><text font-family="Calibri,Calibri_MSFontService,sans-serif" font-weight="400" font-size="21" transform="translate(426.747 198)">Reference Architectures / Frameworks</text><rect x="290.5" y="320.5" width="605" height="43" stroke="#2F528F" stroke-width="1.33333" stroke-miterlimit="8" fill="#9DC3E6"/><text font-family="Calibri,Calibri_MSFontService,sans-serif" font-weight="400" font-size="21" transform="translate(490.601 349)">SDPi+FHIR<tspan font-size="21" x="94.5" y="0">Profiles / IGs</tspan></text><rect x="788.5" y="560.5" width="107" height="77" stroke="#2F528F" stroke-width="1.33333" stroke-miterlimit="8" fill="#2F5597"/><text fill="#FFFFFF" font-family="Calibri,Calibri_MSFontService,sans-serif" font-weight="400" font-size="21" transform="translate(802.515 606)">HL7 FHIR</text><rect x="786.5" y="484.5" width="109" height="69" stroke="#2F528F" stroke-width="1.33333" stroke-miterlimit="8" fill="#2F5597"/><text fill="#FFFFFF" font-family="Calibri,Calibri_MSFontService,sans-serif" font-weight="400" font-size="21" transform="translate(807.648 513)">Devices <tspan font-size="21" x="-0.640015" y="26">on FHIR</tspan></text><rect x="289.5" y="216.5" width="606" height="44" stroke="#2F528F" stroke-width="1.33333" stroke-miterlimit="8" fill="#FFE699"/><text font-family="Calibri,Calibri_MSFontService,sans-serif" font-weight="400" font-size="21" transform="translate(418.463 245)">Device / Health Software Specializations</text><rect x="250.5" y="379.5" width="527" height="266" stroke="#00B0F0" stroke-width="1.33333" stroke-miterlimit="8" stroke-dasharray="5.33333 4" fill="none"/><text fill="#0070C0" font-family="Calibri,Calibri_MSFontService,sans-serif" font-weight="700" font-size="24" transform="matrix(-1.83697e-16 -1 1 -1.83697e-16 275.672 634)">ISO/IEEE 11073 SDC</text><path d="M841.833 370.5 841.833 475.999 841.167 475.999 841.167 370.5ZM845.5 474.665 841.5 482.665 837.5 474.665Z" fill="#4472C4"/><path d="M901 269C905.142 269 908.5 269.56 908.5 270.25L908.5 288.75C908.5 289.44 911.858 290 916 290 911.858 290 908.5 290.56 908.5 291.25L908.5 309.75C908.5 310.44 905.142 311 901 311" stroke="#70AD47" stroke-width="2" stroke-linejoin="round" stroke-miterlimit="10" fill="none" fill-rule="evenodd"/><path d="M896 222C901.523 222 906 222.746 906 223.667L906 239.333C906 240.254 910.477 241 916 241 910.477 241 906 241.746 906 242.667L906 258.333C906 259.254 901.523 260 896 260" stroke="#FFE699" stroke-width="2" stroke-linejoin="round" stroke-miterlimit="10" fill="none" fill-rule="evenodd"/><path d="M0-0.333333 1.8141-0.333333 1.8141 33.9394 1.48077 33.6061 31.2046 33.6061 31.2046 34.2728 1.14743 34.2728 1.14743 0 1.48077 0.333333 0 0.333333ZM29.8713 29.9394 37.8713 33.9394 29.8713 37.9394Z" fill="#4472C4" transform="matrix(1.83697e-16 1 1 -1.83697e-16 780.5 443.5)"/><rect x="173.5" y="147.5" width="30" height="498" stroke="#2F528F" stroke-width="1.33333" stroke-miterlimit="8" fill="#70AD47"/><text fill="#FFFFFF" font-family="Calibri,Calibri_MSFontService,sans-serif" font-weight="400" font-size="19" transform="matrix(-1.83697e-16 -1 1 -1.83697e-16 193.722 607)">ISO/IEC JWG7 Safety, Effectiveness &amp; Security Standards</text><rect x="210.5" y="147.5" width="31" height="497" stroke="#2F528F" stroke-width="1.33333" stroke-miterlimit="8" fill="#7030A0"/><text fill="#FFFFFF" font-family="Calibri,Calibri_MSFontService,sans-serif" font-weight="400" font-size="19" transform="matrix(-1.83697e-16 -1 1 -1.83697e-16 231.466 615)">ISO/IEEE 11073<tspan font-size="19" x="116" y="2.13089e-14">-</tspan><tspan font-size="19" x="122" y="2.2411e-14">1010x Nomenclature &amp; 11073</tspan><tspan font-size="19" x="350" y="6.4294e-14">-</tspan><tspan font-size="19" x="355" y="6.52124e-14">10201 DIM</tspan></text><rect x="916.5" y="494.5" width="162" height="27" stroke="#4472C4" stroke-linejoin="round" stroke-miterlimit="10" fill="none"/><text font-family="Calibri,Calibri_MSFontService,sans-serif" font-weight="400" font-size="15" transform="translate(951.896 513)">Core Standards</text><path d="M900 379C904.142 379 907.5 379.56 907.5 380.25L907.5 506.75C907.5 507.44 910.858 508 915 508 910.858 508 907.5 508.56 907.5 509.25L907.5 635.75C907.5 636.44 904.142 637 900 637" stroke="#4472C4" stroke-width="2" stroke-linejoin="round" stroke-miterlimit="10" fill="none" fill-rule="evenodd"/><rect x="250.5" y="190.5" width="651" height="180" stroke="#00B0F0" stroke-width="1.33333" stroke-miterlimit="8" stroke-dasharray="5.33333 4" fill="none"/><text fill="#0070C0" font-family="Calibri,Calibri_MSFontService,sans-serif" font-weight="700" font-size="24" transform="matrix(-1.83697e-16 -1 1 -1.83697e-16 276.349 361)">Gemini SES MDI</text><path d="M902 319C906.142 319 909.5 319.56 909.5 320.25L909.5 338.75C909.5 339.44 912.858 340 917 340 912.858 340 909.5 340.56 909.5 341.25L909.5 359.75C909.5 360.44 906.142 361 902 361" stroke="#9DC3E6" stroke-width="2" stroke-linejoin="round" stroke-miterlimit="10" fill="none" fill-rule="evenodd"/><rect x="915.5" y="319.5" width="192" height="46" stroke="#9DC3E6" stroke-linejoin="round" stroke-miterlimit="10" fill="#FFFFFF"/><text font-family="Calibri,Calibri_MSFontService,sans-serif" font-weight="400" font-size="15" transform="translate(939.263 338)">Stakeholder Community <tspan font-size="15" x="-13.8333" y="17">Implementation Agreements</tspan></text><rect x="915.5" y="267.5" width="192" height="45" stroke="#70AD47" stroke-linejoin="round" stroke-miterlimit="10" fill="#FFFFFF"/><text font-family="Calibri,Calibri_MSFontService,sans-serif" font-weight="400" font-size="15" transform="translate(940.429 286)">Safe, Effective &amp; Secure <tspan font-size="15" x="24.3334" y="17">Interoperability</tspan></text><rect x="915.5" y="178.5" width="191" height="27" stroke="#F8CBAD" stroke-linejoin="round" stroke-miterlimit="10" fill="#FFFFFF"/><text font-family="Calibri,Calibri_MSFontService,sans-serif" font-weight="400" font-size="15" transform="translate(953.083 196)">SOA, MDIRA/ICE, …</text><path d="M902 179C905.314 179 908 179.448 908 180L908 191.473C908 192.026 910.686 192.473 914 192.473 910.686 192.473 908 192.921 908 193.473L908 204C908 204.552 905.314 205 902 205" stroke="#F8CBAD" stroke-width="2" stroke-linejoin="round" stroke-miterlimit="10" fill="none" fill-rule="evenodd"/><path d="M896 138C901.247 138 905.5 138.709 905.5 139.583L905.5 151.417C905.5 152.291 909.753 153 915 153 909.753 153 905.5 153.709 905.5 154.583L905.5 166.417C905.5 167.291 901.247 168 896 168" stroke="#00B0F0" stroke-width="2" stroke-linejoin="round" stroke-miterlimit="10" fill="none" fill-rule="evenodd"/><rect x="915.5" y="139.5" width="190" height="28" stroke="#00B0F0" stroke-linejoin="round" stroke-miterlimit="10" fill="#FFFFFF"/><text font-family="Calibri,Calibri_MSFontService,sans-serif" font-weight="400" font-size="15" transform="translate(957.422 158)">Real<tspan font-size="15" x="25.6667" y="0">-</tspan>world Needs</text></g></svg>