<svg width="1280" height="720" xmlns="http://www.w3.org/2000/svg" xmlns:xlink="http://www.w3.org/1999/xlink" overflow="hidden"><defs><clipPath id="clip0"><rect x="0" y="0" width="1280" height="720"/></clipPath></defs><g clip-path="url(#clip0)"><rect x="0" y="0" width="1280" height="720" fill="#FFFFFF"/><text fill="#F6A800" font-family="Calibri,Calibri_MSFontService,sans-serif" font-weight="400" font-size="13" transform="translate(14.3562 18)">Internal<tspan fill="#000000" font-size="21" x="365.894" y="539">Patient</tspan></text><rect x="556.5" y="262.5" width="128" height="49" stroke="#000000" stroke-linejoin="round" stroke-miterlimit="10" fill="#A4C2F4"/><text font-family="Arial,Arial_MSFontService,sans-serif" font-weight="400" font-size="19" transform="translate(600.976 282)">NTP<tspan font-size="19" x="-12.42" y="23">Service</tspan></text><rect x="248.5" y="471.5" width="100" height="49" stroke="#000000" stroke-linejoin="round" stroke-miterlimit="10" fill="#9FC5E8"/><text font-family="Arial,Arial_MSFontService,sans-serif" font-weight="400" font-size="19" transform="translate(266.992 502)">Monitor</text><rect x="368.5" y="471.5" width="86" height="49" stroke="#000000" stroke-linejoin="round" stroke-miterlimit="10" fill="#9FC5E8"/><text font-family="Arial,Arial_MSFontService,sans-serif" font-weight="400" font-size="19" transform="translate(386.431 502)">Pump</text><rect x="472.5" y="471.5" width="100" height="49" stroke="#000000" stroke-linejoin="round" stroke-miterlimit="10" fill="#9FC5E8"/><text font-family="Arial,Arial_MSFontService,sans-serif" font-weight="400" font-size="19" transform="translate(482.659 502)">Ventilator</text><path d="M252.5 406.5 1000.23 406.5" stroke="#44546A" stroke-width="3" stroke-linejoin="round" stroke-miterlimit="10" fill="none" fill-rule="evenodd"/><path d="M299.5 470.642 299.5 404.5" stroke="#44546A" stroke-width="3" stroke-linejoin="round" stroke-miterlimit="10" fill="none" fill-rule="evenodd"/><path d="M0 0 0.000104987 67.2126" stroke="#44546A" stroke-width="3" stroke-linejoin="round" stroke-miterlimit="10" fill="none" fill-rule="evenodd" transform="matrix(1 0 0 -1 408.5 472.713)"/><path d="M527.5 472.713 527.5 405.5" stroke="#44546A" stroke-width="3" stroke-linejoin="round" stroke-miterlimit="10" fill="none" fill-rule="evenodd"/><text font-family="Calibri,Calibri_MSFontService,sans-serif" font-weight="400" font-size="21" transform="translate(366.031 393)">SDC LAN<tspan font-size="21" x="441.855" y="164">Patient</tspan></text><rect x="675.5" y="471.5" width="101" height="49" stroke="#000000" stroke-linejoin="round" stroke-miterlimit="10" fill="#9FC5E8"/><text font-family="Arial,Arial_MSFontService,sans-serif" font-weight="400" font-size="19" transform="translate(694.629 502)">Monitor</text><rect x="795.5" y="471.5" width="87" height="49" stroke="#000000" stroke-linejoin="round" stroke-miterlimit="10" fill="#9FC5E8"/><text font-family="Arial,Arial_MSFontService,sans-serif" font-weight="400" font-size="19" transform="translate(814.067 502)">Pump</text><rect x="899.5" y="471.5" width="101" height="49" stroke="#000000" stroke-linejoin="round" stroke-miterlimit="10" fill="#9FC5E8"/><text font-family="Arial,Arial_MSFontService,sans-serif" font-weight="400" font-size="19" transform="translate(910.295 502)">Ventilator</text><path d="M727.5 470.642 727.5 404.5" stroke="#44546A" stroke-width="3" stroke-linejoin="round" stroke-miterlimit="10" fill="none" fill-rule="evenodd"/><path d="M0 0 0.000104987 67.2126" stroke="#44546A" stroke-width="3" stroke-linejoin="round" stroke-miterlimit="10" fill="none" fill-rule="evenodd" transform="matrix(1 0 0 -1 836.5 472.713)"/><path d="M954.5 472.713 954.5 405.5" stroke="#44546A" stroke-width="3" stroke-linejoin="round" stroke-miterlimit="10" fill="none" fill-rule="evenodd"/><path d="M0 0 0.000104987 96.9004" stroke="#44546A" stroke-width="3" stroke-linejoin="round" stroke-miterlimit="10" fill="none" fill-rule="evenodd" transform="matrix(1 0 0 -1 621.5 407.4)"/><rect x="198.5" y="333.5" width="405" height="255" stroke="#2F528F" stroke-width="2.66667" stroke-linejoin="round" stroke-miterlimit="10" stroke-dasharray="10.6667 8" fill="none"/><rect x="645.5" y="333.5" width="404" height="255" stroke="#2F528F" stroke-width="2.66667" stroke-linejoin="round" stroke-miterlimit="10" stroke-dasharray="10.6667 8" fill="none"/><rect x="0" y="-1" width="88" height="38" fill="#FFFFFF"/></g></svg>