<?xml version="1.0" encoding="UTF-8" standalone="no"?>
<svg
   width="1170.7284"
   height="620.16669"
   overflow="hidden"
   version="1.1"
   id="svg145"
   sodipodi:docname="vol1-diagram-sdpi-profiles.svg"
   inkscape:version="1.1.2 (b8e25be833, 2022-02-05)"
   xmlns:inkscape="http://www.inkscape.org/namespaces/inkscape"
   xmlns:sodipodi="http://sodipodi.sourceforge.net/DTD/sodipodi-0.dtd"
   xmlns="http://www.w3.org/2000/svg"
   xmlns:svg="http://www.w3.org/2000/svg">
  <sodipodi:namedview
     id="namedview147"
     pagecolor="#ffffff"
     bordercolor="#000000"
     borderopacity="0.25"
     inkscape:pageshadow="2"
     inkscape:pageopacity="0.0"
     inkscape:pagecheckerboard="0"
     showgrid="false"
     fit-margin-top="15"
     fit-margin-left="15"
     fit-margin-right="15"
     fit-margin-bottom="15"
     inkscape:zoom="0.8609375"
     inkscape:cx="667.29583"
     inkscape:cy="289.80036"
     inkscape:window-width="1620"
     inkscape:window-height="1058"
     inkscape:window-x="-6"
     inkscape:window-y="-6"
     inkscape:window-maximized="1"
     inkscape:current-layer="g143" />
  <defs
     id="defs5">
    <clipPath
       id="clip0">
      <rect
         x="0"
         y="0"
         width="1280"
         height="720"
         id="rect2" />
    </clipPath>
  </defs>
  <g
     clip-path="url(#clip0)"
     id="g143"
     transform="translate(-56.331656,-70)">
    <rect
       style="fill:#ffffff"
       id="rect215"
       width="1304.392"
       height="700.39929"
       x="-4.0676169"
       y="27.023594" />
    <rect
       x="269"
       y="85"
       width="742"
       height="387"
       fill="#064578"
       id="rect9" />
    <text
       fill="#ffffff"
       font-family="Calibri, Calibri_MSFontService, sans-serif"
       font-weight="400"
       font-size="24px"
       transform="translate(370.957,126)"
       id="text11">IHE SDPi Profiles for “PRACtical” Device Interoperability</text>
    <rect
       x="442.5"
       y="154.5"
       width="396"
       height="117"
       stroke="#ffffff"
       stroke-width="1.33333"
       stroke-miterlimit="8"
       fill="#694db7"
       id="rect13" />
    <text
       fill="#ffffff"
       font-family="Calibri, Calibri_MSFontService, sans-serif"
       font-weight="400"
       font-size="24px"
       transform="translate(481.043,206)"
       id="text27">SDPi Plug-<tspan
   font-size="24px"
   x="98.333298"
   y="0"
   id="tspan15">and</tspan><tspan
   font-size="24px"
   x="135.16701"
   y="0"
   id="tspan17">-</tspan><tspan
   font-size="24px"
   x="142.5"
   y="0"
   id="tspan19">Trust</tspan><tspan
   font-size="24px"
   x="196.24699"
   y="0"
   id="tspan21">Connectivity</tspan><tspan
   font-size="24px"
   x="119.953"
   y="29"
   id="tspan23">(SDPi</tspan>-<tspan
   font-size="24px"
   x="178.287"
   y="29"
   id="tspan25">P)</tspan></text>
    <rect
       x="779.5"
       y="324.5"
       width="181"
       height="117"
       stroke="#ffffff"
       stroke-width="1.33333"
       stroke-miterlimit="8"
       fill="#694db7"
       id="rect29" />
    <text
       fill="#ffffff"
       font-family="Calibri, Calibri_MSFontService, sans-serif"
       font-weight="400"
       font-size="24px"
       transform="translate(805.278,361)"
       id="text39">SDPi external <tspan
   font-size="24px"
   x="28.446699"
   y="29"
   id="tspan31">Control</tspan><tspan
   font-size="24px"
   x="20.059999"
   y="58"
   id="tspan33">(SDPi</tspan>-<tspan
   font-size="24px"
   x="78.393303"
   y="58"
   id="tspan35">xC</tspan><tspan
   font-size="24px"
   x="101.56"
   y="58"
   id="tspan37">)</tspan></text>
    <rect
       x="320.5"
       y="322.5"
       width="181"
       height="117"
       stroke="#ffffff"
       stroke-width="1.33333"
       stroke-miterlimit="8"
       fill="#694db7"
       id="rect41" />
    <text
       fill="#ffffff"
       font-family="Calibri, Calibri_MSFontService, sans-serif"
       font-weight="400"
       font-size="24px"
       transform="translate(335.238,374)"
       id="text47">SDPi Reporting<tspan
   font-size="24px"
   x="35.873299"
   y="29"
   id="tspan43">(SDPi</tspan>-<tspan
   font-size="24px"
   x="94.206703"
   y="29"
   id="tspan45">R)</tspan></text>
    <rect
       x="550.5"
       y="324.5"
       width="180"
       height="117"
       stroke="#ffffff"
       stroke-width="1.33333"
       stroke-miterlimit="8"
       fill="#694db7"
       id="rect49" />
    <text
       fill="#ffffff"
       font-family="Calibri, Calibri_MSFontService, sans-serif"
       font-weight="400"
       font-size="24px"
       transform="translate(574.083,376)"
       id="text55">SDPi Alerting<tspan
   font-size="24px"
   x="26.1667"
   y="29"
   id="tspan51">(SDPi</tspan>-<tspan
   font-size="24px"
   x="84.5"
   y="29"
   id="tspan53">A)</tspan></text>
    <rect
       x="300.5"
       y="308.5"
       width="681"
       height="150"
       stroke="#ffffff"
       stroke-width="1.33333"
       stroke-miterlimit="8"
       stroke-dasharray="5.33333, 4"
       fill="none"
       id="rect57" />
    <path
       d="m 640.224,270.025 223.256,51.212 -0.447,1.95 -223.257,-51.212 z m 222.628,47.99 6.903,5.688 -8.692,2.11 z"
       fill="#ffffff"
       id="path59" />
    <path
       d="m 641,271 v 46.036 h -2 V 271 Z m 3,44.703 -4,8 -4,-8 z"
       fill="#ffffff"
       id="path61" />
    <path
       d="M 0.215541,-0.976495 223.261,48.2562 222.83,50.2092 -0.215541,0.976495 Z M 222.606,45.0393 l 6.949,5.6303 -8.674,2.1817 z"
       fill="#ffffff"
       transform="matrix(-1,0,0,1,639.555,271)"
       id="path63" />
    <path
       d="m 1011.67,497.34 -27.243,-33.535 1.552,-1.261 27.241,33.535 z M 982.939,466.732 981,458 l 8.149,3.688 z"
       fill="#ff0000"
       id="path65" />
    <text
       fill="#1e22aa"
       font-family="Calibri, Calibri_MSFontService, sans-serif"
       font-weight="400"
       font-size="24px"
       transform="translate(1041.98,509)"
       id="text71">“medical” <tspan
   font-size="24px"
   x="-27"
   y="29"
   id="tspan67">interoperability</tspan><tspan
   font-size="24px"
   x="7.98669"
   y="58"
   id="tspan69">purpose</tspan></text>
    <rect
       x="320.5"
       y="497.5"
       width="181"
       height="77"
       stroke="#ffffff"
       stroke-width="1.33333"
       stroke-miterlimit="8"
       fill="#ad1f2f"
       id="rect73" />
    <text
       fill="#ffffff"
       font-family="Calibri, Calibri_MSFontService, sans-serif"
       font-weight="400"
       font-size="24px"
       transform="translate(366.653,529)"
       id="text79">HL7 FHIR <tspan
   font-size="24px"
   x="4.48666"
   y="29"
   id="tspan75">PoCD</tspan><tspan
   font-size="24px"
   x="62.173302"
   y="29"
   id="tspan77">IG</tspan></text>
    <rect
       x="320.5"
       y="597.5"
       width="181"
       height="76"
       stroke="#ffffff"
       stroke-width="1.33333"
       stroke-miterlimit="8"
       fill="#ad1f2f"
       id="rect81" />
    <text
       fill="#ffffff"
       font-family="Calibri, Calibri_MSFontService, sans-serif"
       font-weight="400"
       font-size="24px"
       transform="translate(362.274,628)"
       id="text85">FHIR Base <tspan
   font-size="24px"
   x="-1.19333"
   y="29"
   id="tspan83">Resources</tspan></text>
    <rect
       x="779.5"
       y="497.5"
       width="181"
       height="76"
       stroke="#ffffff"
       stroke-width="1.33333"
       stroke-miterlimit="8"
       fill="#76a32e"
       id="rect87" />
    <text
       fill="#ffffff"
       font-family="Calibri, Calibri_MSFontService, sans-serif"
       font-weight="400"
       font-size="24px"
       transform="translate(829.084,528)"
       id="text91">SDC PKP <tspan
   font-size="24px"
   x="-7.8533301"
   y="29"
   id="tspan89">Standards</tspan></text>
    <rect
       x="779.5"
       y="598.5"
       width="181"
       height="76"
       stroke="#ffffff"
       stroke-width="1.33333"
       stroke-miterlimit="8"
       fill="#064578"
       id="rect93" />
    <text
       fill="#ffffff"
       font-family="Calibri, Calibri_MSFontService, sans-serif"
       font-weight="400"
       font-size="24px"
       transform="translate(824.911,629)"
       id="text97">SDC Core <tspan
   font-size="24px"
   x="-3.6799901"
   y="29"
   id="tspan95">Standards</tspan></text>
    <rect
       x="550.5"
       y="498.5"
       width="82"
       height="76"
       stroke="#ffffff"
       stroke-width="1.33333"
       stroke-miterlimit="8"
       fill="#ee2e24"
       id="rect99" />
    <text
       fill="#ffffff"
       font-family="Calibri, Calibri_MSFontService, sans-serif"
       font-weight="400"
       font-size="24px"
       transform="translate(571.136,543)"
       id="text101">DEC</text>
    <rect
       x="550.5"
       y="597.5"
       width="180"
       height="76"
       stroke="#ffffff"
       stroke-width="1.33333"
       stroke-miterlimit="8"
       fill="#ee2e24"
       id="rect103" />
    <text
       fill="#ffffff"
       font-family="Calibri, Calibri_MSFontService, sans-serif"
       font-weight="400"
       font-size="24px"
       transform="translate(605.663,628)"
       id="text107">HL7 V2 <tspan
   font-size="24px"
   x="-17.4133"
   y="29"
   id="tspan105">Messaging</tspan></text>
    <path
       d="M 0.139844,-0.990173 25.3525,2.57066 25.0728,4.551 -0.139844,0.990173 Z M 24.4517,-0.586325 31.8138,4.49312 23.333,7.33506 Z"
       fill="#ff0000"
       transform="matrix(-1,0,0,1,991.814,531)"
       id="path109" />
    <path
       d="m 871,465 v 25.896 h -2 V 465 Z m 3,24.562 -4,8.001 -4,-8 z"
       fill="#ff0000"
       id="path111" />
    <path
       d="m 871,573 v 17.496 h -2 V 573 Z m 3,16.163 -4,8 -4,-8 z"
       fill="#ff0000"
       id="path113" />
    <path
       d="M 1,-3.55262e-6 1.00008,22.8852 -0.999919,22.8853 -1,3.55262e-6 Z M 4.00008,21.5519 l -3.999975013,8 -4.000024987,-8 z"
       transform="matrix(-1,0,0,1,591,574)"
       id="path115" />
    <path
       d="m 411,568.993 0.152,21.731 -2,0.014 L 409,569.007 Z m 3.143,20.377 -3.944,8.028 -4.056,-7.972 z"
       id="path117" />
    <rect
       x="648.5"
       y="498.5"
       width="82"
       height="76"
       stroke="#ffffff"
       stroke-width="1.33333"
       stroke-miterlimit="8"
       fill="#ee2e24"
       id="rect119" />
    <text
       fill="#ffffff"
       font-family="Calibri, Calibri_MSFontService, sans-serif"
       font-weight="400"
       font-size="24px"
       transform="translate(665.84,543)"
       id="text121">ACM</text>
    <path
       d="M 1,-3.55262e-6 1.00008,22.8852 -0.999919,22.8853 -1,3.55262e-6 Z M 4.00008,21.5519 l -3.999975013,8 -4.000024987,-8 z"
       transform="matrix(-1,0,0,1,697,569)"
       id="path123" />
    <path
       d="m 640.752,440.341 44.943,51.289 -1.504,1.318 -44.943,-51.289 z m 46.321,48.309 2.263,8.653 -8.28,-3.38 z"
       id="path125" />
    <path
       d="m 410.373,438.072 135.002,54.255 -0.746,1.855 -135.002,-54.254 z m 134.883,50.974 5.932,6.695 -8.915,0.728 z"
       id="path127" />
    <path
       d="m 411,438.998 0.111,51.59 -2,0.005 L 409,439.002 Z m 3.108,50.251 -3.982,8.008 -4.017,-7.991 z"
       id="path129" />
    <path
       d="M 0,1.66667 H -198.904 L -197.237,0 v 357.232 l -1.667,-1.667 H 42.6561 v 3.334 H -200.57 V -1.66667 H 0 Z m 40.9895,350.56533 10,5 -10,5 z"
       fill="#00b050"
       transform="matrix(-1,0,0,1,1011.49,278.5)"
       id="path131" />
    <path
       d="M 0.344468,-0.938798 133.422,47.8905 132.733,49.7681 -0.344468,0.938798 Z M 133.203,44.6148 l 6.133,6.511 -8.888,0.9994 z"
       transform="matrix(-1,0,0,1,640.336,441)"
       id="path133" />
    <rect
       x="300.5"
       y="480.5"
       width="448"
       height="99"
       stroke="#000000"
       stroke-width="1.33333"
       stroke-miterlimit="8"
       stroke-dasharray="5.33333, 4"
       fill="none"
       id="rect135" />
    <text
       fill="#1e22aa"
       font-family="Calibri, Calibri_MSFontService, sans-serif"
       font-weight="400"
       font-size="24px"
       transform="translate(71.2415,557)"
       id="text139">IHE “Gateway” <tspan
   font-size="24px"
   x="-0.31999999"
   y="29"
   id="tspan137">Actors Defined</tspan></text>
    <path
       d="M 0.507267,-0.861789 53.9862,30.617 52.9716,32.3406 -0.507267,0.861789 Z M 54.3589,27.3553 l 4.8652,7.5053 -8.9233,-0.611 z"
       transform="matrix(1,0,0,-1,241,564.861)"
       id="path141" />
  </g>
</svg>
