<svg width="1280" height="720" xmlns="http://www.w3.org/2000/svg" xmlns:xlink="http://www.w3.org/1999/xlink" overflow="hidden"><defs><clipPath id="clip0"><rect x="0" y="0" width="1280" height="720"/></clipPath></defs><g clip-path="url(#clip0)"><rect x="0" y="0" width="1280" height="720" fill="#FFFFFF"/><text fill="#F6A800" font-family="Calibri,Calibri_MSFontService,sans-serif" font-weight="400" font-size="13" transform="translate(14.3562 18)">Internal</text><rect x="0" y="-1" width="88" height="38" fill="#FFFFFF"/><text font-family="Calibri,Calibri_MSFontService,sans-serif" font-weight="400" font-size="21" transform="translate(401.323 605)">Patient</text><rect x="269.5" y="519.5" width="101" height="49" stroke="#000000" stroke-linejoin="round" stroke-miterlimit="10" fill="#9FC5E8"/><text font-family="Arial,Arial_MSFontService,sans-serif" font-weight="400" font-size="19" transform="translate(288.065 550)">Monitor</text><rect x="389.5" y="519.5" width="86" height="49" stroke="#000000" stroke-linejoin="round" stroke-miterlimit="10" fill="#9FC5E8"/><text font-family="Arial,Arial_MSFontService,sans-serif" font-weight="400" font-size="19" transform="translate(407.504 550)">Pump</text><rect x="493.5" y="519.5" width="101" height="49" stroke="#000000" stroke-linejoin="round" stroke-miterlimit="10" fill="#9FC5E8"/><text font-family="Arial,Arial_MSFontService,sans-serif" font-weight="400" font-size="19" transform="translate(503.732 550)">Ventilator</text><path d="M273.5 454.5 1021.23 454.5" stroke="#44546A" stroke-width="3" stroke-linejoin="round" stroke-miterlimit="10" fill="none" fill-rule="evenodd"/><path d="M320.5 518.642 320.5 452.5" stroke="#44546A" stroke-width="3" stroke-linejoin="round" stroke-miterlimit="10" fill="none" fill-rule="evenodd"/><path d="M0 0 0.000104987 67.2126" stroke="#44546A" stroke-width="3" stroke-linejoin="round" stroke-miterlimit="10" fill="none" fill-rule="evenodd" transform="matrix(1 0 0 -1 429.5 520.713)"/><path d="M548.5 520.713 548.5 453.5" stroke="#44546A" stroke-width="3" stroke-linejoin="round" stroke-miterlimit="10" fill="none" fill-rule="evenodd"/><text font-family="Calibri,Calibri_MSFontService,sans-serif" font-weight="400" font-size="21" transform="translate(387.105 441)">SDC LAN<tspan font-size="21" x="441.856" y="164">Patient</tspan></text><rect x="696.5" y="519.5" width="101" height="49" stroke="#000000" stroke-linejoin="round" stroke-miterlimit="10" fill="#9FC5E8"/><text font-family="Arial,Arial_MSFontService,sans-serif" font-weight="400" font-size="19" transform="translate(715.702 550)">Monitor</text><rect x="816.5" y="519.5" width="87" height="49" stroke="#000000" stroke-linejoin="round" stroke-miterlimit="10" fill="#9FC5E8"/><text font-family="Arial,Arial_MSFontService,sans-serif" font-weight="400" font-size="19" transform="translate(835.14 550)">Pump</text><rect x="920.5" y="519.5" width="101" height="49" stroke="#000000" stroke-linejoin="round" stroke-miterlimit="10" fill="#9FC5E8"/><text font-family="Arial,Arial_MSFontService,sans-serif" font-weight="400" font-size="19" transform="translate(931.369 550)">Ventilator</text><path d="M748.5 518.642 748.5 452.5" stroke="#44546A" stroke-width="3" stroke-linejoin="round" stroke-miterlimit="10" fill="none" fill-rule="evenodd"/><path d="M0 0 0.000104987 67.2126" stroke="#44546A" stroke-width="3" stroke-linejoin="round" stroke-miterlimit="10" fill="none" fill-rule="evenodd" transform="matrix(1 0 0 -1 857.5 520.713)"/><path d="M975.5 520.713 975.5 453.5" stroke="#44546A" stroke-width="3" stroke-linejoin="round" stroke-miterlimit="10" fill="none" fill-rule="evenodd"/><path d="M0 0 0.000104987 199.89" stroke="#44546A" stroke-width="3" stroke-linejoin="round" stroke-miterlimit="10" fill="none" fill-rule="evenodd" transform="matrix(1 0 0 -1 642.5 456.39)"/><rect x="219.5" y="382.5" width="405" height="254" stroke="#2F528F" stroke-width="2.66667" stroke-linejoin="round" stroke-miterlimit="10" stroke-dasharray="10.6667 8" fill="none"/><rect x="666.5" y="382.5" width="404" height="254" stroke="#2F528F" stroke-width="2.66667" stroke-linejoin="round" stroke-miterlimit="10" stroke-dasharray="10.6667 8" fill="none"/><rect x="577.5" y="310.5" width="128" height="49" stroke="#000000" stroke-linejoin="round" stroke-miterlimit="10" fill="#A4C2F4"/><text font-family="Arial,Arial_MSFontService,sans-serif" font-weight="400" font-size="19" transform="translate(602.879 330)">Alert GW <tspan font-size="19" x="6.74664" y="23">Service</tspan></text><rect x="811.5" y="310.5" width="148" height="49" stroke="#000000" stroke-linejoin="round" stroke-miterlimit="10" fill="#A4C2F4"/><text font-family="Arial,Arial_MSFontService,sans-serif" font-weight="400" font-size="19" transform="translate(820.624 330)">Alert Recording <tspan font-size="19" x="33.08" y="23">System</tspan></text><path d="M0 0 0.000104987 54.2754" stroke="#44546A" stroke-width="3" stroke-linejoin="round" stroke-miterlimit="10" fill="none" fill-rule="evenodd" transform="matrix(1 0 0 -1 884.5 310.775)"/><path d="M493.5 256.5 951.466 256.5" stroke="#44546A" stroke-width="3" stroke-linejoin="round" stroke-miterlimit="10" fill="none" fill-rule="evenodd"/><path d="M716 332.167 796.149 332.167 796.149 335.833 716 335.833ZM794.316 328.5 805.316 334 794.316 339.5Z" fill="#3F6EC3"/></g></svg>