<svg width="1280" height="720" xmlns="http://www.w3.org/2000/svg" xmlns:xlink="http://www.w3.org/1999/xlink" overflow="hidden"><defs><clipPath id="clip0"><rect x="0" y="0" width="1280" height="720"/></clipPath></defs><g clip-path="url(#clip0)"><rect x="0" y="0" width="1280" height="720" fill="#FFFFFF"/><text fill="#F6A800" font-family="Calibri,Calibri_MSFontService,sans-serif" font-weight="400" font-size="13" transform="translate(14.3562 18)">Internal<tspan fill="#000000" font-size="21" x="386.967" y="577">Patient</tspan></text><rect x="577.5" y="300.5" width="128" height="49" stroke="#000000" stroke-linejoin="round" stroke-miterlimit="10" fill="#A4C2F4"/><text font-family="Arial,Arial_MSFontService,sans-serif" font-weight="400" font-size="19" transform="translate(624.625 320)">ICU <tspan font-size="19" x="-29.4133" y="23">Dashboard</tspan></text><rect x="269.5" y="509.5" width="101" height="49" stroke="#000000" stroke-linejoin="round" stroke-miterlimit="10" fill="#9FC5E8"/><text font-family="Arial,Arial_MSFontService,sans-serif" font-weight="400" font-size="19" transform="translate(288.065 540)">Monitor</text><rect x="389.5" y="509.5" width="86" height="49" stroke="#000000" stroke-linejoin="round" stroke-miterlimit="10" fill="#9FC5E8"/><text font-family="Arial,Arial_MSFontService,sans-serif" font-weight="400" font-size="19" transform="translate(407.504 540)">Pump</text><rect x="493.5" y="509.5" width="101" height="49" stroke="#000000" stroke-linejoin="round" stroke-miterlimit="10" fill="#9FC5E8"/><text font-family="Arial,Arial_MSFontService,sans-serif" font-weight="400" font-size="19" transform="translate(503.732 540)">Ventilator</text><path d="M273.5 444.5 1021.23 444.5" stroke="#44546A" stroke-width="3" stroke-linejoin="round" stroke-miterlimit="10" fill="none" fill-rule="evenodd"/><path d="M320.5 508.642 320.5 442.5" stroke="#44546A" stroke-width="3" stroke-linejoin="round" stroke-miterlimit="10" fill="none" fill-rule="evenodd"/><path d="M0 0 0.000104987 67.2126" stroke="#44546A" stroke-width="3" stroke-linejoin="round" stroke-miterlimit="10" fill="none" fill-rule="evenodd" transform="matrix(1 0 0 -1 429.5 510.713)"/><path d="M548.5 510.713 548.5 443.5" stroke="#44546A" stroke-width="3" stroke-linejoin="round" stroke-miterlimit="10" fill="none" fill-rule="evenodd"/><text font-family="Calibri,Calibri_MSFontService,sans-serif" font-weight="400" font-size="21" transform="translate(387.105 431)">SDC LAN<tspan font-size="21" x="441.856" y="164">Patient</tspan></text><rect x="696.5" y="509.5" width="101" height="49" stroke="#000000" stroke-linejoin="round" stroke-miterlimit="10" fill="#9FC5E8"/><text font-family="Arial,Arial_MSFontService,sans-serif" font-weight="400" font-size="19" transform="translate(715.702 540)">Monitor</text><rect x="816.5" y="509.5" width="87" height="49" stroke="#000000" stroke-linejoin="round" stroke-miterlimit="10" fill="#9FC5E8"/><text font-family="Arial,Arial_MSFontService,sans-serif" font-weight="400" font-size="19" transform="translate(835.14 540)">Pump</text><rect x="920.5" y="509.5" width="101" height="49" stroke="#000000" stroke-linejoin="round" stroke-miterlimit="10" fill="#9FC5E8"/><text font-family="Arial,Arial_MSFontService,sans-serif" font-weight="400" font-size="19" transform="translate(931.369 540)">Ventilator</text><path d="M748.5 508.642 748.5 442.5" stroke="#44546A" stroke-width="3" stroke-linejoin="round" stroke-miterlimit="10" fill="none" fill-rule="evenodd"/><path d="M0 0 0.000104987 67.2126" stroke="#44546A" stroke-width="3" stroke-linejoin="round" stroke-miterlimit="10" fill="none" fill-rule="evenodd" transform="matrix(1 0 0 -1 857.5 510.713)"/><path d="M975.5 510.713 975.5 443.5" stroke="#44546A" stroke-width="3" stroke-linejoin="round" stroke-miterlimit="10" fill="none" fill-rule="evenodd"/><path d="M0 0 0.000104987 96.9004" stroke="#44546A" stroke-width="3" stroke-linejoin="round" stroke-miterlimit="10" fill="none" fill-rule="evenodd" transform="matrix(1 0 0 -1 642.5 446.4)"/><rect x="219.5" y="372.5" width="405" height="254" stroke="#2F528F" stroke-width="2.66667" stroke-linejoin="round" stroke-miterlimit="10" stroke-dasharray="10.6667 8" fill="none"/><rect x="666.5" y="372.5" width="404" height="254" stroke="#2F528F" stroke-width="2.66667" stroke-linejoin="round" stroke-miterlimit="10" stroke-dasharray="10.6667 8" fill="none"/><rect x="0" y="-1" width="88" height="38" fill="#FFFFFF"/></g></svg>