<svg width="1280" height="720" xmlns="http://www.w3.org/2000/svg" xmlns:xlink="http://www.w3.org/1999/xlink" overflow="hidden"><defs><clipPath id="clip0"><rect x="0" y="0" width="1280" height="720"/></clipPath></defs><g clip-path="url(#clip0)"><rect x="0" y="0" width="1280" height="720" fill="#FFFFFF"/><text fill="#F6A800" font-family="Calibri,Calibri_MSFontService,sans-serif" font-weight="400" font-size="13" transform="translate(14.3562 18)">Internal<tspan fill="#000000" font-size="21" x="613.877" y="583">Patient</tspan></text><rect x="592.5" y="307.5" width="128" height="49" stroke="#000000" stroke-linejoin="round" stroke-miterlimit="10" fill="#A4C2F4"/><text font-family="Arial,Arial_MSFontService,sans-serif" font-weight="400" font-size="19" transform="translate(620.419 327)">ICU Bed <tspan font-size="19" x="-10.2467" y="23">Dashboard</tspan></text><rect x="496.5" y="515.5" width="100" height="49" stroke="#000000" stroke-linejoin="round" stroke-miterlimit="10" fill="#9FC5E8"/><text font-family="Arial,Arial_MSFontService,sans-serif" font-weight="400" font-size="19" transform="translate(514.975 547)">Monitor</text><rect x="616.5" y="515.5" width="86" height="49" stroke="#000000" stroke-linejoin="round" stroke-miterlimit="10" fill="#9FC5E8"/><text font-family="Arial,Arial_MSFontService,sans-serif" font-weight="400" font-size="19" transform="translate(634.413 547)">Pump</text><rect x="720.5" y="515.5" width="100" height="49" stroke="#000000" stroke-linejoin="round" stroke-miterlimit="10" fill="#9FC5E8"/><text font-family="Arial,Arial_MSFontService,sans-serif" font-weight="400" font-size="19" transform="translate(730.641 547)">Ventilator</text><path d="M273.5 451.5 1021.23 451.5" stroke="#44546A" stroke-width="3" stroke-linejoin="round" stroke-miterlimit="10" fill="none" fill-rule="evenodd"/><path d="M547.5 515.642 547.5 449.5" stroke="#44546A" stroke-width="3" stroke-linejoin="round" stroke-miterlimit="10" fill="none" fill-rule="evenodd"/><path d="M0 0 0.000104987 161.966" stroke="#44546A" stroke-width="3" stroke-linejoin="round" stroke-miterlimit="10" fill="none" fill-rule="evenodd" transform="matrix(1 0 0 -1 656.5 517.466)"/><path d="M775.5 517.713 775.5 450.5" stroke="#44546A" stroke-width="3" stroke-linejoin="round" stroke-miterlimit="10" fill="none" fill-rule="evenodd"/><text font-family="Calibri,Calibri_MSFontService,sans-serif" font-weight="400" font-size="21" transform="translate(351.659 441)">SDC LAN</text><rect x="446.5" y="378.5" width="405" height="254" stroke="#2F528F" stroke-width="2.66667" stroke-linejoin="round" stroke-miterlimit="10" stroke-dasharray="10.6667 8" fill="none"/><rect x="0" y="-1" width="88" height="38" fill="#FFFFFF"/></g></svg>